<svg width="49" height="41" viewBox="0 0 49 41" fill="none" xmlns="http://www.w3.org/2000/svg">
<path d="M43.1905 8.51548L38.1209 8.52688L38.1095 3.45727C38.1075 2.56091 37.7495 1.70206 37.1142 1.06966C36.479 0.43726 35.6185 0.083115 34.7222 0.0851307L14.4438 0.130732C13.5474 0.132748 12.6885 0.490759 12.0561 1.12601C11.4237 1.76126 11.0696 2.62171 11.0716 3.51807L11.083 8.58768L6.01341 8.59908C4.66887 8.6021 3.3806 9.13912 2.432 10.092C1.4834 11.0449 0.952182 12.3355 0.955206 13.6801L1.00841 37.3383C1.01042 38.2346 1.36843 39.0935 2.00368 39.7259C2.63893 40.3583 3.49938 40.7124 4.39575 40.7104L44.9526 40.6192C45.849 40.6172 46.7078 40.2592 47.3402 39.6239C47.9726 38.9887 48.3268 38.1282 48.3247 37.2318L48.2715 13.5737C48.2685 12.2291 47.7315 10.9409 46.7786 9.99227C45.8258 9.04367 44.5351 8.51245 43.1905 8.51548ZM14.4514 3.51047L34.7298 3.46487L34.7412 8.53448L14.4628 8.58008L14.4514 3.51047ZM44.945 37.2394L4.38815 37.3307L4.35394 22.1218L17.8729 22.0914L17.8919 30.5408L31.4109 30.5104L31.3919 22.061L44.9108 22.0306L44.945 37.2394ZM21.2526 22.0838L28.0121 22.0686L28.0235 27.1382L21.264 27.1534L21.2526 22.0838ZM4.34634 18.7421L4.33494 13.6725C4.33394 13.2243 4.51101 12.7941 4.82721 12.4765C5.14341 12.1588 5.57283 11.9798 6.02101 11.9788L43.1981 11.8952C43.6463 11.8942 44.0765 12.0713 44.3942 12.3875C44.7118 12.7037 44.8908 13.1331 44.8918 13.5813L44.9032 18.6509L4.34634 18.7421Z" fill="#0D5C63"/>
</svg>
