<svg width="49" height="49" viewBox="0 0 49 49" fill="none" xmlns="http://www.w3.org/2000/svg">
<g clip-path="url(#clip0_964_18511)">
<g clip-path="url(#clip1_964_18511)">
<path opacity="0.15" d="M44.2537 13.9326L4.95383 14.0209C4.93583 14.021 4.92385 14.0328 4.92389 14.0506L4.93605 19.4559C4.94402 23.0001 7.89047 25.868 11.5085 25.8599C13.9505 25.8544 16.0775 24.5457 17.2072 22.6051C17.3805 22.3024 17.71 22.112 18.064 22.1112C18.418 22.1104 18.7425 22.2994 18.9231 22.6012C20.0555 24.5368 22.1884 25.8359 24.6304 25.8304C27.0784 25.8249 29.2115 24.5102 30.3291 22.5637C30.5024 22.267 30.82 22.0825 31.162 22.0818L31.198 22.0817C31.546 22.0809 31.8584 22.2639 32.0331 22.5599C33.1654 24.5013 35.3044 25.8064 37.7524 25.8009C41.3704 25.7927 44.3039 22.9116 44.2959 19.3674L44.2838 13.9621C44.2837 13.9443 44.2717 13.9325 44.2537 13.9326Z" fill="#0D5C63"/>
<path d="M46.7945 9.6657L46.7774 2.07345C46.775 1.0244 45.9151 0.178799 44.8531 0.181187L4.29327 0.272396C3.23127 0.274784 2.37518 1.12425 2.37754 2.17329L2.39461 9.76554C1.39275 9.82707 0.596603 10.6527 0.598869 11.6602L0.616422 19.4659C0.615806 20.9004 0.913057 22.3198 1.4898 23.6364C1.74916 24.2404 2.06844 24.8086 2.42965 25.3471L2.47563 45.7946C2.47798 46.8378 3.33789 47.6893 4.39989 47.6869L44.9598 47.5957C46.0218 47.5933 46.8778 46.7438 46.8755 45.6948L46.8295 25.2473C47.194 24.7058 47.506 24.1316 47.7616 23.5323C48.3287 22.2094 48.6195 20.8041 48.6163 19.3579L48.5987 11.5523C48.5964 10.5447 47.7966 9.72271 46.7945 9.6657ZM6.70286 4.53431L42.4627 4.45389L42.4745 9.66949L6.71458 9.7499L6.70286 4.53431ZM28.5102 43.3713L20.8303 43.3886L20.8164 37.2187L28.4964 37.2015L28.5102 43.3713ZM42.5742 43.3397L32.3502 43.3627L32.3321 35.2963C32.3297 34.2472 31.4698 33.4016 30.4078 33.404L18.8879 33.4299C17.8259 33.4323 16.9698 34.2818 16.9721 35.3308L16.9903 43.3972L6.7903 43.4201L6.75802 29.0654C6.93221 29.148 7.11239 29.2305 7.29855 29.3012C8.6378 29.8554 10.0604 30.1307 11.5244 30.1274C12.9884 30.1241 14.4038 29.8424 15.7465 29.2823C16.5737 28.9366 17.3528 28.4963 18.0656 27.9672C18.0776 27.9612 18.0896 27.9612 18.1016 27.9671C18.819 28.4952 19.5999 28.9335 20.4265 29.2717C21.7658 29.8258 23.1884 30.1012 24.6524 30.0979C26.1164 30.0946 27.5317 29.8129 28.8745 29.2527C29.7017 28.9071 30.4807 28.4668 31.1935 27.9377C31.2055 27.9317 31.2175 27.9317 31.2295 27.9376C31.9469 28.4657 32.7279 28.9039 33.5545 29.2422C34.8937 29.7963 36.3163 30.0717 37.7803 30.0684C39.2443 30.0651 40.6597 29.7834 42.0024 29.2232C42.1823 29.1458 42.3621 29.0683 42.5419 28.9849L42.5742 43.3397ZM44.2963 19.3676C44.3042 22.9119 41.3707 25.793 37.7527 25.8011C35.3047 25.8066 33.1658 24.5016 32.0334 22.5601C31.8588 22.2642 31.5464 22.0812 31.1984 22.0819L31.1624 22.082C30.8204 22.0828 30.5028 22.2672 30.3294 22.564C29.756 23.5569 28.9267 24.3822 27.9258 24.956C26.9249 25.5298 25.788 25.8315 24.6308 25.8306C22.1888 25.8361 20.0559 24.537 18.9235 22.6015C18.7428 22.2996 18.4184 22.1107 18.0644 22.1115C17.7104 22.1123 17.3808 22.3027 17.2075 22.6053C16.6307 23.5945 15.8003 24.4161 14.7999 24.9875C13.7995 25.5589 12.6644 25.8599 11.5088 25.8601C7.89083 25.8683 4.94438 23.0004 4.93641 19.4561L4.92425 14.0509C4.92421 14.0331 4.93619 14.0212 4.95419 14.0212L44.2541 13.9328C44.2721 13.9328 44.2841 13.9446 44.2841 13.9624L44.2963 19.3676Z" fill="#0D5C63"/>
</g>
</g>
<defs>
<clipPath id="clip0_964_18511">
<rect width="48" height="48" fill="white" transform="translate(0.573242 0.280762) rotate(-0.128844)"/>
</clipPath>
<clipPath id="clip1_964_18511">
<rect width="48" height="47.4146" fill="white" transform="translate(0.573242 0.280762) rotate(-0.128844)"/>
</clipPath>
</defs>
</svg>
