<svg width="49" height="49" viewBox="0 0 49 49" fill="none" xmlns="http://www.w3.org/2000/svg">
<g clip-path="url(#clip0_964_18518)">
<g clip-path="url(#clip1_964_18518)">
<path d="M29.7451 14.0322L41.743 14.0052L41.7507 17.4506L29.7529 17.4775L29.7451 14.0322Z" fill="white"/>
<path d="M29.7646 22.6455L41.7625 22.6185L41.7702 26.0638L29.7724 26.0908L29.7646 22.6455Z" fill="white"/>
<path d="M29.7842 31.2588L41.782 31.2318L41.7898 34.6771L29.7919 34.7041L29.7842 31.2588Z" fill="white"/>
<path d="M45.1522 5.38465L4.01682 5.47715C3.10795 5.48011 2.23738 5.84535 1.59616 6.49272C0.954948 7.14009 0.595468 8.0167 0.596615 8.93017L0.666344 39.938C0.669306 40.8514 1.03272 41.7264 1.67685 42.3709C2.32097 43.0154 3.19317 43.3767 4.10204 43.3756L45.2375 43.2831C46.1462 43.2796 47.0165 42.9143 47.6576 42.267C48.2987 41.6197 48.6584 40.7434 48.6577 39.83L48.5879 8.82225C48.585 7.90878 48.2216 7.0338 47.5774 6.38932C46.9333 5.74484 46.0611 5.38352 45.1522 5.38465ZM4.02457 8.92246L22.8783 8.88007L22.948 39.8878L4.0943 39.9302L4.02457 8.92246ZM26.376 39.8801L26.3063 8.87236L45.16 8.82996L45.2331 39.8377L26.376 39.8801Z" fill="white"/>
</g>
</g>
<defs>
<clipPath id="clip0_964_18518">
<rect width="48" height="48" fill="white" transform="translate(0.572266 0.473633) rotate(-0.128844)"/>
</clipPath>
<clipPath id="clip1_964_18518">
<rect width="48" height="37.92" fill="white" transform="translate(0.583984 5.47363) rotate(-0.128844)"/>
</clipPath>
</defs>
</svg>
